<?xml version="1.0" encoding="UTF-8"?>
<svg id="Layer_1" data-name="Layer 1" xmlns="http://www.w3.org/2000/svg" xmlns:xlink="http://www.w3.org/1999/xlink" viewBox="0 0 942.53 136.4">
  <defs>
    <style>
      .cls-1 {
        fill: none;
      }

      .cls-2 {
        clip-path: url(#clippath);
      }

      .cls-3 {
        fill: #fff;
      }

      .cls-4 {
        fill: #f25929;
      }

      .cls-5 {
        fill: #26abe0;
      }

      .cls-6 {
        clip-path: url(#clippath-1);
      }

      .cls-7 {
        clip-path: url(#clippath-2);
      }
    </style>
    <clipPath id="clippath">
      <rect class="cls-1" y="0" width="942.53" height="136.4"/>
    </clipPath>
    <clipPath id="clippath-1">
      <rect class="cls-1" y="0" width="942.53" height="136.4"/>
    </clipPath>
    <clipPath id="clippath-2">
      <rect class="cls-1" y="0" width="942.53" height="136.4"/>
    </clipPath>
  </defs>
  <g class="cls-2">
    <path class="cls-4" d="M183.08,85.01v23.17c0,14.94-8.79,22.4-26.36,22.4h-14.19c-17.58,0-26.36-7.47-26.36-22.4V22.59C116.16,7.66,124.95,.19,142.52,.19h14.19c17.57,0,26.36,7.47,26.36,22.4v22.21h-26.36V27.57c0-3.32-1.76-4.98-5.27-4.98h-3.65c-3.52,0-5.27,1.66-5.27,4.98V103.78c0,3.32,1.76,4.98,5.27,4.98h3.65c3.51,0,5.27-1.66,5.27-4.98v-18.76h26.36Z"/>
  </g>
  <path class="cls-4" d="M188.55,51.32v79.27h52.11v-24.89h-25.75v-29.49h25.75v-24.89h-52.11ZM188.55,.19V48.83h26.36V22.59h27.98V.19h-54.35Z"/>
  <polygon class="cls-4" points="291.97 0 291.97 58.21 277.37 0 247.97 0 247.97 130.58 274.33 130.58 274.33 74.87 288.32 130.58 318.33 130.58 318.33 0 291.97 0"/>
  <path class="cls-4" d="M340.23,130.58h26.36V27.76h-26.36v102.82Zm-16.63-104.92h59.62V.19h-59.62V25.66Z"/>
  <g class="cls-6">
    <path class="cls-4" d="M455,108.18c0,14.94-8.79,22.4-26.36,22.4h-14.4c-17.58,0-26.36-7.47-26.36-22.4V.19h26.36V103.78c0,3.45,1.76,5.17,5.27,5.17h3.85c3.51,0,5.27-1.72,5.27-5.17V.19h26.36V108.18Z"/>
    <path class="cls-4" d="M500.42,53.8V27.57c0-3.32-1.76-4.98-5.27-4.98h-7.71V58.78h7.71c3.51,0,5.27-1.66,5.27-4.98m26.36,8.23c0,10.72-4.6,17.62-13.79,20.68l13.79,47.87h-27.58l-11.76-45.19v45.19h-26.36V.19h39.34c17.57,0,26.36,7.47,26.36,22.4V62.04Z"/>
    <path class="cls-4" d="M598.36,.19V75.63c0,13.02-6.62,20.36-19.87,22.02v32.93h-27.17v-32.93c-13.25-1.79-19.87-9.12-19.87-22.02V.19h26.36V71.23c0,3.45,1.76,5.17,5.27,5.17h3.65c3.51,0,5.27-1.72,5.27-5.17V.19h26.36Z"/>
  </g>
  <path class="cls-5" d="M20.68,125.36l76.69,.71,.18-17.53-76.69-.71-.18,17.53ZM0,136.23l19,.17,.41-39.65-19-.17-.41,39.65Z"/>
  <polygon class="cls-5" points=".72 66.23 38.86 66.59 38.76 76.03 .63 75.67 .44 93.21 97.71 94.1 97.89 76.57 57.9 76.2 57.99 66.76 97.99 67.13 98.06 59.44 98.17 49.6 .91 48.7 .72 66.23"/>
  <path class="cls-5" d="M39.09,44.34l59.13,.54,.36-34.66-18.57-.17-.18,17.13-21.99-.2,.18-17.13-18.57-.17-.36,34.66Zm-38.13-.35l36.28,.33,.18-17.53-19.57-.18,.19-18.61-16.71-.15-.37,36.14Z"/>
  <path class="cls-3" d="M635.37,29.79h25.96v101.27h-25.96V29.79Zm-16.38-27.15h58.72V27.71h-58.72V2.63Z"/>
  <rect class="cls-3" x="682.3" y="2.63" width="25.96" height="128.42"/>
  <polygon class="cls-3" points="812.11 2.63 812.11 131.05 786.15 131.05 786.15 48.08 776.17 131.05 751.8 131.05 741.61 48.08 741.61 131.05 715.65 131.05 715.65 2.63 754.2 2.63 763.98 82.59 773.57 2.63 812.11 2.63"/>
  <path class="cls-3" d="M819.1,52.98h51.33v24.51h-25.36v29.04h25.36v24.52h-51.33V52.98Zm0-50.35h53.52V24.69h-27.56v25.84h-25.96V2.63Z"/>
  <g class="cls-7">
    <path class="cls-3" d="M942.53,82.02v30.17c-1.2,12.57-9.86,18.86-25.96,18.86h-13.98c-17.31,0-25.96-7.35-25.96-22.06v-27.72h25.96v23.38c0,3.27,1.73,4.9,5.19,4.9h3.59c3.46,0,5.19-1.63,5.19-4.9v-16.03c0-2.01-.8-3.71-2.4-5.09l-29.96-22.25c-2.4-1.76-4.26-3.93-5.59-6.51-1.33-2.58-2-5.31-2-8.2V24.69c0-14.71,8.65-22.06,25.96-22.06h13.98c17.31,0,25.96,7.35,25.96,22.06v21.88h-25.96V29.6c0-3.27-1.73-4.9-5.19-4.9h-3.59c-3.47,0-5.19,1.64-5.19,4.9v10.37c0,2.01,.87,3.65,2.6,4.9l29.76,22.25c5.06,3.77,7.59,8.74,7.59,14.9"/>
  </g>
</svg>